:SAMPLES-PER-SECOND 30
:FULLY-SPECIFIED
:DEGREES
557
root  0.338181 38.8725 -37.9299 136.346 86.1626 138.649
RightUpLeg  -20.5428 -10.4593 4.41166
RightLeg  10.7073 -13.7985 2.3821
RightFoot  4.66721 1.55352 -10.8783
RightToes  -4.65663e-010 0 -3.6325e-017
Spine  0.534479 -4.21225 1.69628
Spine1  7.84534 -4.91899 1.32192
HEad  -13.6543 -1.61288 -2.357
LeftShoulder1  8.7456 -12.2808 -48.3646
LeftArm  -4.21449 -2.92074 -16.6477
LeftForeArm  26.6091 -33.0395 -5.78657
LeftHand  -0.244104 0.0205437 5.32207
RightShoulder  5.59312 8.73373 39.5879
RightArm  -9.83605 -21.4322 29.8926
RightForeArm  14.3801 4.70355 5.21681
RightHand  -0.753744 1.11745 -13.5489
LeftUpLeg  21.673 14.9564 3.99177
LeftLeg  14.0519 2.47265 -1.72514
LeftFoot  -14.3001 -0.20511 -11.6979
LeftToes  -7.27628e-011 -1.6005e-012 -1.37987e-011
558
root  2.1387 38.8528 -38.0448 153.949 87.8105 156.22
RightUpLeg  -21.4421 -14.0795 8.26469
RightLeg  16.335 -8.39322 -0.167527
RightFoot  3.48463 1.88437 -14.2217
RightToes  -4.65663e-010 0 -3.6325e-017
Spine  -0.378119 -4.05406 4.87788
Spine1  7.62552 -4.64148 1.14392
HEad  -13.0615 -1.27373 -2.83651
LeftShoulder1  8.74825 -12.1311 -48.8432
LeftArm  -2.23702 0.796026 -18.0443
LeftForeArm  28.2987 -32.9651 -5.67205
LeftHand  -0.244104 0.0205437 5.32207
RightShoulder  5.5862 8.71852 39.5882
RightArm  -8.87453 -21.6948 29.476
RightForeArm  15.5117 5.38126 5.44647
RightHand  -0.723928 1.19798 -12.8712
LeftUpLeg  20.9657 18.3721 7.6451
LeftLeg  20.4538 -2.17176 -0.204341
LeftFoot  -9.11757 0.386021 -16.5195
LeftToes  -7.27628e-011 -1.6005e-012 -1.37987e-011
559
root  3.76977 38.8514 -38.0721 -172.807 88.6378 -170.644
RightUpLeg  -21.1041 -16.2084 10.5505
RightLeg  20.1464 -5.40077 -1.69489
RightFoot  0.20681 1.46304 -14.3049
RightToes  -4.65663e-010 0 -3.6325e-017
Spine  -0.39401 -3.93534 6.65887
Spine1  6.84745 -4.45772 1.77991
HEad  -12.6196 -0.949137 -2.79377
LeftShoulder1  8.61524 -11.9314 -48.7212
LeftArm  -0.994972 4.86732 -20.2759
LeftForeArm  28.5967 -31.7569 -5.36106
LeftHand  -0.244104 0.0205437 5.32207
RightShoulder  5.65192 8.84893 39.6353
RightArm  -8.30104 -21.148 29.5395
RightForeArm  16.1564 5.97387 5.61142
RightHand  -0.730585 1.31741 -12.7639
LeftUpLeg  15.7988 14.2436 7.71089
LeftLeg  31.1962 0.166714 0.442566
LeftFoot  0.91067 1.76528 -16.8224
LeftToes  -7.27628e-011 -1.6005e-012 -1.37987e-011
560
root  5.19336 38.7836 -38.069 -135.156 87.7132 -133.002
RightUpLeg  -19.8977 -17.2482 11.5545
RightLeg  22.7776 -4.96633 -2.0303
RightFoot  -3.27452 0.907075 -13.114
RightToes  -4.65663e-010 0 -3.6325e-017
Spine  -0.15961 -4.09764 8.46292
Spine1  6.8249 -4.4517 2.5335
HEad  -12.8438 -1.13953 -2.30332
LeftShoulder1  8.59806 -11.9461 -48.5772
LeftArm  0.343007 8.02912 -22.3134
LeftForeArm  26.9771 -29.3075 -4.87153
LeftHand  -0.244104 0.0205437 5.32207
RightShoulder  5.73878 8.99388 39.7917
RightArm  -8.36252 -19.8594 30.2037
RightForeArm  15.2464 7.02585 5.79288
RightHand  -0.790021 1.59214 -13.2624
LeftUpLeg  8.6028 9.98032 8.07212
LeftLeg  43.3488 0.31916 0.680902
LeftFoot  11.385 2.58943 -13.1736
LeftToes  -7.27628e-011 -1.6005e-012 -1.37987e-011
561
root  6.57215 38.7929 -38.0695 -123.744 86.5463 -121.405
RightUpLeg  -17.7589 -17.2125 11.7753
RightLeg  24.0462 -5.61489 -1.60407
RightFoot  -5.87497 0.556836 -12.4571
RightToes  -4.65663e-010 0 -3.6325e-017
Spine  -0.297652 -3.97111 10.7255
Spine1  7.7436 -4.03403 2.49885
HEad  -13.3731 -1.81317 -1.89782
LeftShoulder1  8.75986 -12.1479 -48.8551
LeftArm  2.7454 9.85147 -23.6088
LeftForeArm  24.4571 -25.6466 -4.19666
LeftHand  -0.244104 0.0205437 5.32207
RightShoulder  5.8148 9.05437 40.1558
RightArm  -8.28615 -17.9522 30.9945
RightForeArm  13.4334 8.60385 6.0825
RightHand  -0.853986 1.90611 -13.7285
LeftUpLeg  1.85364 6.5157 8.74606
LeftLeg  53.1886 0.111091 0.656145
LeftFoot  15.6256 2.32376 -10.0141
LeftToes  -7.27628e-011 -1.6005e-012 -1.37987e-011
562
root  8.04989 39.0341 -38.032 -101.417 86.9149 -98.762
RightUpLeg  -14.1792 -15.1719 10.6195
RightLeg  23.3672 -6.72416 -0.941276
RightFoot  -7.5705 0.350666 -12.1397
RightToes  -4.65663e-010 0 -3.6325e-017
Spine  -0.674694 -3.07452 11.7693
Spine1  8.50968 -2.8611 1.60407
HEad  -13.6223 -2.79972 -1.30594
LeftShoulder1  8.91826 -12.2865 -49.3045
LeftArm  4.48848 11.372 -24.4308
LeftForeArm  23.4002 -21.2948 -3.97979
LeftHand  -0.244104 0.0205437 5.32207
RightShoulder  5.92563 9.14966 40.6533
RightArm  -7.0039 -15.4387 31.6012
RightForeArm  12.1371 10.2152 6.37977
RightHand  -0.860238 1.94461 -13.7549
LeftUpLeg  -3.3904 5.38893 8.74662
LeftLeg  58.9478 0.80334 1.99667
LeftFoot  13.5539 1.73745 -8.22998
LeftToes  -7.27628e-011 -1.6005e-012 -1.37987e-011
563
root  9.51733 39.3249 -37.9542 -53.3633 87.3334 -50.5125
RightUpLeg  -10.3546 -12.8957 8.83512
RightLeg  21.8798 -6.82538 -0.175292
RightFoot  -9.00124 0.176874 -11.5522
RightToes  -4.65663e-010 0 -3.6325e-017
Spine  -0.824063 -1.9393 11.5662
Spine1  8.55931 -1.43574 0.471586
HEad  -12.8494 -3.40908 -1.03439
LeftShoulder1  8.95438 -12.3011 -49.4582
LeftArm  1.61906 13.802 -25.0491
LeftForeArm  26.2823 -16.9147 -5.19966
LeftHand  -0.244104 0.0205437 5.32207
RightShoulder  6.06121 9.35198 40.9537
RightArm  -4.59042 -12.4848 32.3623
RightForeArm  12.003 11.6979 6.5494
RightHand  -0.812601 1.65925 -13.5118
LeftUpLeg  -7.82815 5.68668 7.94254
LeftLeg  60.9526 1.86567 4.20571
LeftFoot  9.25377 1.21628 -6.99662
LeftToes  -7.27628e-011 -1.6005e-012 -1.37987e-011
564
root  10.9186 39.5327 -37.8791 -15.6321 85.9021 -12.7977
RightUpLeg  -7.06286 -10.9675 7.04584
RightLeg  20.5125 -6.42211 0.878809
RightFoot  -10.297 0.0298044 -10.8732
RightToes  -4.65663e-010 0 -3.6325e-017
Spine  -0.847203 -1.11243 11.4123
Spine1  8.17467 -0.313738 -0.684644
HEad  -11.6618 -3.46522 -1.10582
LeftShoulder1  8.9446 -12.3295 -49.3161
LeftArm  -2.60884 17.1923 -25.6109
LeftForeArm  28.6536 -13.2408 -6.09147
LeftHand  -0.244104 0.0205437 5.32207
RightShoulder  6.11738 9.51078 40.8181
RightArm  -1.32118 -9.39863 33.6205
RightForeArm  11.5463 13.5532 6.4838
RightHand  -0.770815 1.38741 -13.3232
LeftUpLeg  -12.0738 5.69454 6.94225
LeftLeg  60.038 2.69494 5.61143
LeftFoot  5.91953 0.755295 -5.20554
LeftToes  -7.27628e-011 -1.6005e-012 -1.37987e-011
